<svg width="60" height="53" viewBox="0 0 60 53" fill="none" xmlns="http://www.w3.org/2000/svg">
<path d="M47.5 0H12.5C9.18601 0.00379029 6.00889 1.26247 3.66555 3.49994C1.3222 5.73741 0.00396964 8.77098 0 11.9352L0 40.5798C0.00396964 43.7441 1.3222 46.7777 3.66555 49.0151C6.00889 51.2526 9.18601 52.5113 12.5 52.5151H47.5C50.814 52.5113 53.9911 51.2526 56.3345 49.0151C58.6778 46.7777 59.996 43.7441 60 40.5798V11.9352C59.996 8.77098 58.6778 5.73741 56.3345 3.49994C53.9911 1.26247 50.814 0.00379029 47.5 0ZM12.5 4.7741H47.5C48.997 4.77691 50.4588 5.20738 51.6974 6.01012C52.936 6.81286 53.8946 7.95113 54.45 9.27846L35.305 27.5609C33.8961 28.9007 31.9885 29.653 30 29.653C28.0115 29.653 26.1039 28.9007 24.695 27.5609L5.55 9.27846C6.10537 7.95113 7.06403 6.81286 8.30262 6.01012C9.5412 5.20738 11.003 4.77691 12.5 4.7741ZM47.5 47.741H12.5C10.5109 47.741 8.60322 46.9865 7.1967 45.6435C5.79018 44.3005 5 42.4791 5 40.5798V15.5158L21.16 30.9361C23.5066 33.171 26.6856 34.4261 30 34.4261C33.3144 34.4261 36.4934 33.171 38.84 30.9361L55 15.5158V40.5798C55 42.4791 54.2098 44.3005 52.8033 45.6435C51.3968 46.9865 49.4891 47.741 47.5 47.741Z" fill="white"/>
</svg>
