<svg width="110" height="40" viewBox="0 0 110 40" fill="none" xmlns="http://www.w3.org/2000/svg">
<g clip-path="url(#clip0_558_23310)">
<path d="M32.8162 11.233C32.8162 13.2171 32.1667 14.8399 30.8679 16.1015C29.569 17.3631 27.9255 17.9929 25.9374 17.9909C23.9664 17.9909 22.3854 17.3963 21.1944 16.2073C20.0033 15.0183 19.4073 13.4403 19.4062 11.4733C19.4062 9.48923 20.0557 7.86642 21.3546 6.60484C22.6535 5.34325 24.2969 4.71195 26.285 4.71094C28.2561 4.71094 29.8371 5.30546 31.0281 6.49448C32.2192 7.68352 32.8152 9.26153 32.8162 11.2285M28.8092 12.5359C28.8092 10.834 28.648 9.39151 28.3255 8.20852C27.8217 6.30907 26.9526 5.35937 25.7182 5.35937C24.1776 5.35937 23.4072 6.96308 23.4072 10.1704C23.4072 11.8724 23.5684 13.3148 23.8908 14.4978C24.3947 16.3791 25.2638 17.3198 26.4982 17.3198C28.0389 17.3198 28.8092 15.7251 28.8092 12.5359Z" fill="white"/>
<path d="M19.2155 0.402056L18.7621 0.509371C18.1887 0.652459 17.7988 0.885225 17.5922 1.20768C17.3856 1.53013 17.2849 2.08434 17.2899 2.87032V18.3555H15.5335L3.08948 3.06227V15.3174C3.08948 16.0883 3.20133 16.6213 3.42503 16.9166C3.64873 17.2118 4.0921 17.4315 4.75514 17.5756L5.26602 17.6829V18.0864H0V17.6829L0.565297 17.5484C1.08424 17.4234 1.45153 17.2038 1.66717 16.8893C1.88281 16.575 1.99013 16.0329 1.98912 15.263V2.71765C1.98912 1.98307 1.90851 1.46362 1.74728 1.15931C1.60318 0.907396 1.32507 0.708889 0.912939 0.563785L0.429262 0.402056V0H5.80411L16.1775 12.7917V2.89752C16.1775 2.09139 16.0767 1.53164 15.8751 1.21826C15.6736 0.904878 15.2751 0.676641 14.6796 0.533555L14.1415 0.399032V0H19.2216L19.2155 0.402056Z" fill="white"/>
<path d="M41.4132 6.69151H38.1061V14.9427C38.1061 16.4119 38.5898 17.1465 39.5571 17.1465C40.08 17.1676 40.5997 17.0569 41.0686 16.8245L41.2832 17.278C40.459 18.1022 39.2407 18.5144 37.6284 18.5144C36.8323 18.5273 36.0489 18.3128 35.3703 17.8962C34.5995 17.4306 34.2145 16.7948 34.2155 15.9887C34.2155 15.8808 34.2336 15.2627 34.2699 14.1341C34.3062 13.0055 34.3243 12.1273 34.3243 11.4996V6.69151H33.0078V6.28799C33.9389 5.66121 35.4977 4.3175 37.6843 2.25684L38.2753 2.33695C38.1675 3.78797 38.1136 4.7644 38.1136 5.2662V5.53525H41.4193L41.4132 6.69151Z" fill="white"/>
<path d="M56.3293 17.6296L51.4109 18.6513C51.3031 18.2392 51.1686 17.5404 51.0073 16.5549C49.2691 17.8095 47.7909 18.4367 46.5726 18.4367C45.4642 18.4367 44.5951 18.0513 43.9653 17.2804C43.4261 16.6226 43.1422 15.7924 43.1657 14.9421V7.7127C43.1657 7.10813 42.8433 6.70504 42.1984 6.50356L41.6875 6.3418V5.91103L46.9777 5.26562L46.9505 7.38173V13.94C46.9505 15.8032 47.4609 16.7348 48.4817 16.7348C49.055 16.7348 49.8702 16.4577 50.9272 15.9035V7.73391C50.9272 7.05472 50.5957 6.64363 49.9327 6.5005L49.1769 6.34027V5.93672L54.6863 5.26713L54.7135 5.29434L54.6863 7.84122V15.7009C54.6863 16.7197 54.982 17.229 55.5735 17.229C55.6632 17.229 55.9151 17.2023 56.3293 17.1489V17.6296Z" fill="white"/>
<path d="M78.5815 39.1519V39.5525H72.5082V39.1519L72.8572 39.0431C73.3106 38.892 73.5312 38.4053 73.5312 37.5664V32.1084C73.5312 31.0504 73.4677 30.3067 73.3424 29.8775C73.09 29.0506 72.5638 28.6425 71.7584 28.6425C71.2726 28.6425 70.4836 28.9449 69.3916 29.5494V37.9125C69.3916 38.5504 69.6757 38.9267 70.2502 39.0401L70.868 39.1489V39.5495H64.4788V39.1489L64.8797 39.0129C65.365 38.8481 65.6051 38.3947 65.6051 37.6525V10.6952C65.6051 9.36809 65.5006 8.5005 65.2849 8.08781C64.9641 7.4621 64.5289 7.14921 63.9924 7.14921C63.388 7.14921 62.5447 7.4863 61.4697 8.16793V16.339C61.4697 17.057 61.7539 17.4666 62.3283 17.5739L62.9462 17.6827V18.0833H56.5423V17.6827L56.9187 17.5739C57.4204 17.4228 57.6744 16.9406 57.6744 16.0972V9.031C57.6855 8.76327 57.6327 8.49671 57.5205 8.2533C57.4083 8.00996 57.2399 7.7968 57.029 7.63137L56.3594 7.09329V6.79097L61.2491 4.90918L61.4655 5.09812V7.44242C62.1572 6.88674 62.8832 6.37487 63.6386 5.90979C64.5173 5.40596 65.3503 5.15405 66.1374 5.15405C68.3227 5.15405 69.4166 6.59548 69.4185 9.4784V26.5401H69.3916V28.827C71.1479 27.3951 72.7331 26.6796 74.1478 26.6806C76.2782 26.6806 77.344 28.0848 77.3452 30.8931V37.9171C77.3452 38.5216 77.6214 38.9041 78.1793 39.0446L78.5815 39.1519Z" fill="white"/>
<path d="M52.2212 36.6028L47.7608 24.662C47.1512 23.0336 46.738 21.8426 46.5214 21.0889H43.2157C42.7502 22.7575 42.3653 23.9945 42.061 24.7995L37.7366 36.1674C37.1955 37.5837 36.5697 38.4346 35.8518 38.7188L35.7188 38.7747V39.1753H40.1021V38.7793L39.5126 38.6433C38.9397 38.5193 38.6495 38.1339 38.6495 37.4885C38.6732 36.9814 38.783 36.482 38.9745 36.0118L40.2094 32.6502H46.2553L47.7668 36.7312C47.8703 37.0057 47.9245 37.2964 47.927 37.5897C47.927 38.2518 47.6671 38.6206 47.1456 38.6931L46.6075 38.7733V39.1738H54.2693V38.7793C53.3906 38.6191 52.7099 37.8931 52.2272 36.6012M40.5344 31.7116L43.1976 24.399L45.9092 31.7116H40.5344Z" fill="white"/>
<path d="M62.2142 32.3549C62.1256 32.2864 61.0771 31.6687 59.0688 30.5018C57.9412 29.8559 57.3774 29.2286 57.3774 28.62C57.3774 27.4934 58.0586 26.9302 59.4209 26.9302C59.7761 26.9286 60.1276 27.0018 60.4526 27.145C60.7776 27.2882 61.0689 27.4983 61.3073 27.7615C61.7932 28.227 62.304 29.0331 62.84 30.1798L63.2452 30.071L62.9427 26.578C61.974 26.3493 60.9818 26.2322 59.9863 26.2288C59.195 26.2145 58.4063 26.3226 57.648 26.5493C55.7546 27.1599 54.8079 28.3701 54.8079 30.1798C54.8079 31.3275 55.3545 32.3221 56.4479 33.1635C57.4666 33.753 58.4899 34.3546 59.5086 34.9607C60.603 35.6061 61.1484 36.2727 61.1484 36.9498C61.1594 37.2187 61.105 37.4862 60.9905 37.7298C60.8761 37.9734 60.7048 38.1859 60.4911 38.3495C60.0569 38.6872 59.5206 38.8669 58.9706 38.8588C58.3972 38.8588 57.8158 38.6436 57.2263 38.2134C56.5323 37.6913 55.9864 36.9974 55.6423 36.2001L55.077 34.9607L54.6719 34.9894L54.8533 39.3244L55.9566 39.2442C57.2666 39.4568 58.2521 39.5637 58.9131 39.5646C60.1848 39.5646 61.2065 39.3319 61.9783 38.8663C63.2659 38.0763 63.9107 36.8758 63.9119 35.2645C63.9119 34.1732 63.349 33.2073 62.2185 32.3609" fill="white"/>
<path d="M91.5657 37.8731C91.1324 38.198 90.6258 38.1345 90.2689 38.1345C89.6963 38.1345 89.4078 37.7416 89.4078 36.9556V31.1908C89.4078 29.6501 89.2563 28.586 88.9544 27.9985C88.3445 26.871 87.1608 26.3082 85.4038 26.3102C84.4096 26.2983 83.4202 26.4516 82.476 26.7637C81.4169 27.1405 80.5742 27.666 79.9484 28.3401C79.3227 29.0143 79.0098 29.7095 79.0098 30.426C79.0092 30.5692 79.0269 30.7118 79.0617 30.8507L82.663 30.0209V29.5357C82.663 27.9597 83.128 27.1707 84.0582 27.1687C84.7927 27.1687 85.2676 27.6025 85.4821 28.4596C85.6422 29.1216 85.7271 30.1222 85.7271 31.4674V32.5708C83.4324 32.9839 81.8912 33.3154 81.1022 33.5653C79.5097 34.0873 78.7128 35.0632 78.7109 36.4931C78.7109 37.6766 79.22 38.5381 80.2436 39.0717C80.8327 39.3731 81.4878 39.5223 82.1497 39.5055C83.3322 39.5055 84.5519 39.111 85.8072 38.322C86.1274 39.1805 86.8882 39.6098 88.0897 39.6098C88.7564 39.6017 89.4139 39.4528 90.0196 39.1729C90.6936 38.8707 91.1593 38.2903 91.5736 37.8776M85.7363 37.7371C85.2303 37.9755 84.6821 38.1116 84.1236 38.1376C83.8657 38.1459 83.6096 38.0959 83.3737 37.9911C83.1384 37.8864 82.9294 37.7298 82.7632 37.533C82.4137 37.1324 82.2413 36.5777 82.2413 35.881C82.2413 35.0385 82.6263 34.4032 83.3963 33.975C83.862 33.722 84.6412 33.4883 85.7344 33.2736L85.7363 37.7371Z" fill="white"/>
<path d="M83.7673 14.3125C83.7639 14.3134 83.7606 14.3134 83.7578 14.3125C83.7578 14.3125 83.7578 14.3125 83.7645 14.3125H83.7673Z" fill="white"/>
<path d="M89.4017 20.9915L89.3906 20.9805C89.3928 20.9812 89.3956 20.9812 89.3978 20.9805C89.3978 20.9805 89.3978 20.9874 89.3978 20.9915" fill="white"/>
<path d="M89.4469 19.2715H89.4375V19.2646" fill="white"/>
<path d="M89.9001 19.8592H89.8906V19.8496L89.9001 19.8564" fill="white"/>
<path d="M94.4693 12.9975H94.4609V12.9893L94.4693 12.9975Z" fill="white"/>
<path d="M94.6785 13.2069H94.6719V13.1973L94.6785 13.2069Z" fill="white"/>
<path d="M84.6562 18.8544C84.6562 18.8544 84.6562 18.8544 84.6484 18.8475V18.8379L84.6562 18.8544Z" fill="white"/>
<path d="M85.51 19.6602H85.5C85.5 19.6602 85.5 19.6602 85.5 19.6533L85.51 19.6602Z" fill="white"/>
<path d="M86.2767 22.0303L86.2656 22.0234H86.2723C86.2723 22.0234 86.2723 22.0234 86.2723 22.0303" fill="white"/>
<path d="M78.1227 21.4209V21.4223L78.1172 21.4209H78.1227Z" fill="white"/>
<path d="M89.6346 24.5421H89.5949C89.5949 24.5421 79.3716 24.3002 77.009 19.9456C76.9693 19.9033 77.0451 19.988 77.009 19.9456C76.7958 19.1581 76.888 18.1863 77.3109 17.5167C77.5578 17.1313 77.7858 17.3217 77.9159 17.5363C77.9942 17.6693 77.8493 17.4517 77.9398 17.5787C79.6448 22.231 89.6358 24.5315 89.6358 24.5315" fill="white"/>
<path d="M90.3551 23.5343C90.3392 23.536 90.3227 23.536 90.3068 23.5343C90.3068 23.5343 78.6352 20.3859 77.6678 12.6909C77.6391 12.6123 77.6104 12.5307 77.5859 12.452C77.6599 11.122 78.1616 9.58025 78.9249 8.63407C79.3667 8.08541 79.5647 8.5358 79.6264 8.91823C79.6643 9.15553 79.7126 9.39282 79.7639 9.62407C79.8489 17.6062 90.3533 23.5373 90.3533 23.5373" fill="white"/>
<path d="M78.1227 21.4209H78.1172V21.4223H78.1227V21.4209Z" fill="white"/>
<path d="M89.4017 20.9911L89.3906 20.9814C89.3928 20.9822 89.3956 20.9822 89.3978 20.9814C89.3978 20.9814 89.3978 20.9883 89.3978 20.9924" fill="white"/>
<path d="M89.9001 19.852V19.8602H89.8906V19.8506H89.904L89.9001 19.852Z" fill="white"/>
<path d="M86.2767 22.0303L86.2656 22.0234H86.2723C86.2723 22.0234 86.2723 22.0234 86.2723 22.0303" fill="white"/>
<path d="M85.51 19.6544H85.5C85.5 19.6544 85.5 19.6543 85.5 19.6475H85.5139" fill="white"/>
<path d="M84.6562 18.8544C84.6562 18.8544 84.6562 18.8544 84.6484 18.8475V18.8379H84.6579C84.6579 18.8379 84.6579 18.8475 84.6579 18.853" fill="white"/>
<path d="M80.899 20.9376L80.8906 20.9307L80.899 20.9376Z" fill="white"/>
<path d="M80.899 20.9376L80.8906 20.9307L80.899 20.9376Z" fill="white"/>
<path d="M89.4469 19.2715H89.4375V19.2646" fill="white"/>
<path d="M89.9001 19.852V19.8602H89.8906V19.8506H89.904L89.9001 19.852Z" fill="white"/>
<path d="M97.8273 17.5762C97.8273 17.5762 97.8273 17.5762 97.8273 17.5853L97.8047 17.5762H97.8273Z" fill="white"/>
<path d="M89.4469 19.2715H89.4375V19.2646" fill="white"/>
<path d="M83.7673 14.3125C83.7639 14.3134 83.7606 14.3134 83.7578 14.3125C83.7578 14.3125 83.7578 14.3125 83.7645 14.3125H83.7673Z" fill="white"/>
<path d="M89.4017 20.9915L89.3906 20.9805C89.3928 20.9812 89.3956 20.9812 89.3978 20.9805C89.3978 20.9805 89.3978 20.9874 89.3978 20.9915" fill="white"/>
<path d="M86.2767 22.0303L86.2656 22.0234H86.2723C86.2723 22.0234 86.2723 22.0234 86.2723 22.0303" fill="white"/>
<path d="M97.8273 17.5762C97.8273 17.5762 97.8273 17.5762 97.8273 17.5853L97.8047 17.5762H97.8273Z" fill="white"/>
<path d="M85.51 19.6544H85.5C85.5 19.6544 85.5 19.6543 85.5 19.6475H85.5139" fill="white"/>
<path d="M94.8889 13.4102H94.875V13.4115H94.8889V13.4102Z" fill="white"/>
<path d="M94.6785 13.1973H94.6719V13.2069H94.6785V13.1973Z" fill="white"/>
<path d="M94.8889 13.4102H94.875V13.4115H94.8889V13.4102Z" fill="white"/>
<path d="M94.4709 12.9893H94.4609V12.9961H94.4709V12.9893Z" fill="white"/>
<path d="M94.6785 13.1973H94.6719V13.2069H94.6785V13.1973Z" fill="white"/>
<path d="M94.2594 12.7842H94.25V12.7897H94.2594V12.7842Z" fill="white"/>
<path d="M94.4709 12.9893H94.4609V12.9961H94.4709V12.9893Z" fill="white"/>
<path d="M94.2594 12.7842H94.25V12.7897H94.2594V12.7842Z" fill="white"/>
<path d="M78.1227 21.4209H78.1172V21.4223H78.1227V21.4209Z" fill="white"/>
<path d="M78.1227 21.4209H78.1172V21.4223H78.1227V21.4209Z" fill="white"/>
<path d="M84.6562 18.8544C84.6562 18.8544 84.6562 18.8544 84.6484 18.8475V18.8379H84.6579C84.6579 18.8379 84.6579 18.8475 84.6579 18.853" fill="white"/>
<path d="M80.899 20.9317L80.8906 20.9248L80.899 20.9317Z" fill="white"/>
<path d="M93.2534 22.5714C93.2534 22.5714 85.5845 17.7679 83.9914 10.3283C83.7475 9.27027 84.6575 9.72371 84.6575 9.72371C84.916 9.85376 96.4867 12.1603 97.9937 22.5714C99.5007 32.9825 91.8979 37.6077 91.8979 37.6077C91.8979 37.6077 100.787 32.0922 99.5124 22.4928C98.2382 12.8933 88.2355 8.18805 82.8333 6.94108C76.6678 5.50971 90.9953 24.0783 93.2534 22.5714Z" fill="white"/>
<path d="M100.641 10.665C100.585 10.6846 103.618 5.278 109.05 10.9355C109.137 10.9624 109.23 10.9624 109.317 10.9355C109.432 10.9037 109.749 10.7541 110.001 11.0156C109.139 11.4947 104.683 12.1401 105.004 20.0664C104.66 21.5552 104.55 25.3838 100.641 27.6238C100.823 27.06 104.269 20.9733 103.344 17.2943C102.419 13.6153 106.252 11.4161 106.252 11.4161C106.252 11.4161 106.58 8.62593 100.643 10.6604" fill="white"/>
</g>
<defs>
<clipPath id="clip0_558_23310">
<rect width="110" height="39.7222" fill="white"/>
</clipPath>
</defs>
</svg>
